<svg width="100%" height="100%" viewBox="0 0 24 24" fill="none" xmlns="http://www.w3.org/2000/svg">
<path d="M6.00776 12H5.99878" stroke="currentColor" stroke-width="2" stroke-linecap="round" stroke-linejoin="round"/>
<path d="M17.5 12.0833C14.5 5.48589 5 5.48589 2 12.0833C3.21828 14.7625 5.50848 16.3537 8 16.8568L9.1094 18.6782C9.65844 19.4932 10.9648 19.9871 13.8819 20C13.9465 20.0003 14 19.9484 14 19.8845C14 18.5764 13.3507 17.3811 12.3099 16.6525C11.9076 16.3708 11.4635 16.1947 11 16.0418M12.3099 16.6525C14.4801 15.9922 16.4151 14.4692 17.5 12.0833M17.5 12.0833C17.8333 11.4236 19.6 9.11447 22 9.11447C21.1667 9.93915 19.8 13.0729 21 15.0522C19.8 15.0522 18 12.7431 17.5 12.0833ZM12.3099 7.5142C13.3507 6.78564 14 5.59024 14 4.28218C14 3.4556 9.69172 4.62406 9.1094 5.48846L8 7.30982" stroke="currentColor" stroke-width="1.5" stroke-linecap="round" stroke-linejoin="round"/>
</svg>
